<?xml version="1.0" standalone="no"?>
<!DOCTYPE svg PUBLIC "-//W3C//DTD SVG 20010904//EN"
 "http://www.w3.org/TR/2001/REC-SVG-20010904/DTD/svg10.dtd">
<svg version="1.0" xmlns="http://www.w3.org/2000/svg"
 width="392.000000pt" height="392.000000pt" viewBox="0 0 392.000000 392.000000"
 preserveAspectRatio="xMidYMid meet">

<g transform="translate(0.000000,392.000000) scale(0.100000,-0.100000)"
fill="#457b9d" stroke="none">
<path d="M390 3371 c-93 -29 -177 -101 -219 -190 l-26 -56 0 -1180 0 -1180 34
-63 c75 -138 218 -207 366 -176 55 12 155 64 155 81 0 3 -20 41 -45 85 -48 83
-49 104 -5 128 53 28 102 2 146 -77 20 -35 37 -63 39 -63 1 0 23 12 49 26 l46
25 -30 52 c-45 80 -86 124 -127 137 -55 18 -58 25 -30 62 l25 33 -43 32 -43
32 -68 -89 c-37 -50 -70 -90 -73 -90 -3 0 -17 20 -31 45 l-25 44 -47 -27 -47
-27 84 -147 c80 -141 82 -148 64 -164 -14 -13 -32 -15 -83 -12 -83 5 -148 43
-191 112 l-30 49 -5 1146 c-3 630 -2 1163 1 1184 11 62 57 126 119 161 47 26
64 30 126 30 57 -1 80 -6 115 -26 24 -13 328 -188 674 -388 347 -200 722 -415
835 -478 262 -147 427 -247 463 -280 85 -80 101 -233 34 -333 -20 -31 -166
-139 -187 -139 -5 0 -31 39 -59 88 -56 98 -80 124 -133 147 -112 46 -240 -16
-274 -133 -21 -72 -11 -110 67 -248 34 -60 63 -110 64 -112 4 -5 83 36 88 45
3 5 -24 58 -59 118 -67 116 -73 138 -49 185 19 37 43 50 90 50 49 0 75 -29
143 -159 30 -55 56 -101 59 -101 12 0 179 94 235 131 145 99 189 275 108 428
-19 35 -50 77 -69 93 -48 40 -326 204 -1219 717 -414 238 -778 444 -810 457
-58 24 -149 31 -202 15z"/>
<path d="M2870 2930 c-20 -20 -20 -33 -20 -985 0 -952 0 -965 20 -985 18 -18
33 -20 160 -20 127 0 142 2 160 20 20 20 20 33 20 985 0 952 0 965 -20 985
-18 18 -33 20 -160 20 -127 0 -142 -2 -160 -20z"/>
<path d="M3520 2930 c-20 -20 -20 -33 -20 -985 0 -952 0 -965 20 -985 18 -18
33 -20 160 -20 127 0 142 2 160 20 20 20 20 33 20 985 0 952 0 965 -20 985
-18 18 -33 20 -160 20 -127 0 -142 -2 -160 -20z"/>
<path d="M1645 1646 c-59 -27 -77 -46 -104 -106 -67 -146 39 -310 201 -310
126 0 218 93 218 220 0 167 -162 268 -315 196z m153 -100 c64 -33 74 -122 21
-175 -25 -26 -39 -31 -76 -31 -38 0 -50 5 -79 34 -28 28 -34 42 -34 76 0 34 6
48 34 76 38 38 85 45 134 20z"/>
<path d="M1215 1406 c-59 -27 -77 -46 -104 -106 -67 -146 39 -310 201 -310
126 0 218 93 218 220 0 167 -162 268 -315 196z m153 -100 c64 -33 74 -122 21
-175 -25 -26 -39 -31 -76 -31 -38 0 -50 5 -79 34 -28 28 -34 42 -34 76 0 34 6
48 34 76 38 38 85 45 134 20z"/>
<path d="M945 1252 c-73 -40 -110 -104 -110 -191 0 -62 4 -72 64 -181 34 -63
64 -116 66 -118 4 -5 83 36 88 45 3 5 -20 51 -50 103 -40 68 -57 109 -61 143
-4 46 -3 49 38 88 30 29 46 54 55 90 l13 49 -26 0 c-15 0 -49 -13 -77 -28z"/>
</g>
</svg>
